<svg xmlns="http://www.w3.org/2000/svg" xmlns:xlink="http://www.w3.org/1999/xlink" viewBox="0 0 24 30" version="1.1" x="0px" y="0px"><title>hummus</title><desc>Created with Sketch.</desc><g stroke="none" stroke-width="1" fill="none" fill-rule="evenodd"><g fill-rule="nonzero" fill="#000000"><path d="M7.19976818,13.7898364 C7.17929222,13.5931452 7.12721406,13.4011883 7.04579014,13.2063184 C7.05128469,13.2085166 7.05605794,13.2104317 7.0600153,13.2120265 C7.07291217,13.2172283 7.07291217,13.2172283 7.08583392,13.2224581 C7.70775666,13.4743922 8.33144063,13.4453366 8.91792147,13.1408956 C8.91859518,13.1456335 8.91930153,13.1506014 8.92004412,13.1558243 C8.94370794,13.3253243 8.98063558,13.4875764 9.03034191,13.6421469 C8.44561079,13.9138602 7.82297034,13.9671831 7.19976818,13.7898364 Z M4.43764724,11.1846124 C4.42746345,11.1338394 4.41773549,11.0819057 4.40844487,11.0287699 C4.42729441,10.6268622 4.58873959,10.2877049 4.8557993,10.0134765 C5.07125258,9.79223975 5.32836572,9.63584186 5.58445497,9.53129961 C5.64497602,8.56237207 6.52138081,8.21841372 7.71422472,8.44078193 C8.72411156,8.62904356 9.74439272,9.17893482 9.98667836,9.6658617 C9.98323065,9.66761312 9.97978343,9.66937886 9.97633671,9.67115897 C9.8405531,9.78429345 9.71815259,9.8964646 9.60826629,10.0083634 C9.60361094,10.0027392 9.59893113,9.99711485 9.59422692,9.99149051 C9.45957745,9.61989989 8.52963174,9.10140269 7.62259403,8.93231404 C6.62776334,8.74685917 6.05685361,8.99786595 6.08209681,9.69281884 C6.12148766,10.6373102 6.55998063,11.2312522 7.23270011,11.578509 C7.4721874,11.702132 7.68049206,11.7646349 7.800806,11.784777 C7.93698207,11.8075745 8.02889349,11.9364482 8.0060959,12.0726242 C7.9832983,12.2088003 7.85442468,12.3007117 7.71824861,12.2779141 C7.55055268,12.2498397 7.29410234,12.1728905 7.00335427,12.0228068 C6.26783136,11.6431309 5.74939409,11.0059419 5.61442341,10.0683646 C5.59821458,9.95576953 5.58753609,9.83884231 5.58267611,9.71750864 C5.58009455,9.65305777 5.58072643,9.59099267 5.58445497,9.53129961 C5.61283025,9.51971609 5.64119295,9.5087692 5.66948503,9.4984413 C5.71207628,9.48289354 5.74225624,9.47325674 5.76490583,9.46680754 C5.89783825,9.42948967 6.03585338,9.50700058 6.07317125,9.63993301 C6.07811808,9.65755444 6.08104714,9.67526518 6.08209681,9.69281884 C6.0846564,9.81390173 6.01200899,9.91676721 5.90004578,9.94819843 C5.89394389,9.94982058 5.87111676,9.95710954 5.84094114,9.96812502 C5.76577194,9.99556523 5.68946428,10.028941 5.61442341,10.0683646 C5.47066396,10.1438901 5.33155369,10.2416114 5.21400367,10.3623169 C5.02833814,10.5529662 4.9207051,10.7790772 4.90424427,10.99635 C4.91906917,11.0790116 4.93501112,11.1580117 4.95221709,11.2336083 C4.7884077,11.2030616 4.61662544,11.1866877 4.43764724,11.1846124 Z M1.62159811,13.9823359 C1.63295373,14.2638077 1.76726915,14.6241328 1.98410182,14.9832676 C1.66963094,15.3109579 1.5,15.6536911 1.5,16 C1.5,17.7982044 6.07357556,19.5 11.75,19.5 C17.4264244,19.5 22,17.7982044 22,16 C22,14.4630699 18.6589272,12.9965682 14.1438146,12.6028571 C14.1251646,12.276681 14.0691816,11.9248932 13.9769204,11.5831444 C19.1137375,11.973486 23,13.7020801 23,16 C23,17.1052216 22.1009971,18.078742 20.5962431,18.8350095 L20.5029825,18.9424707 C19.645416,19.9306173 17.92413,20.8527877 16.6405454,21.0227494 C16.6405454,21.0227494 15.2449048,21.3303592 11.5309245,21.3308919 C7.81694412,21.3314247 6.54397672,21.031402 6.54397672,21.031402 C5.2542828,20.872118 3.56782706,19.8919277 2.77089617,18.8739985 L2.62632247,18.6893328 C1.28917002,17.9554081 0.5,17.0355095 0.5,16 C0.5,15.2598071 0.903229425,14.5786861 1.62159811,13.9823359 Z M9.1203885,13.8821109 C8.40973788,13.9652039 7.75893876,14.0840689 7.19350969,14.2288093 C7.22183822,14.007863 7.21251503,13.7985704 7.16826024,13.5917124 C7.72815983,13.4952968 8.32692583,13.4177094 8.95588262,13.3609871 C8.99453012,13.5442295 9.04959318,13.718141 9.1203885,13.8821109 Z M13.8918074,13.895587 C13.8928191,13.892712 13.893828,13.8898344 13.8948342,13.8869541 C13.9961714,13.7737907 14.0670091,13.5922543 14.1080721,13.3668363 C17.6715475,13.6973035 20.25,14.699713 20.25,16 C20.25,17.6007128 16.3424234,18.75 11.5,18.75 C6.65757662,18.75 2.75,17.6007128 2.75,16 C2.75,15.9678177 2.75157948,15.9358179 2.75471429,15.9040062 C2.94277158,16.06724 3.1349302,16.1971578 3.32667209,16.2903276 C3.8780245,17.3359926 7.33540676,18.25 11.5,18.25 C16.0464174,18.25 19.75,17.160711 19.75,16 C19.75,15.4856031 19.0226045,14.9852336 17.8168153,14.5874876 C18.2234333,14.8884044 18.4499998,15.2296138 18.4499998,15.5999999 C18.4499998,16.9764829 15.3208382,17.9499998 11.4499998,17.9499998 C8.21419455,17.9499998 5.49667518,17.2697034 4.69211538,16.2424038 C4.78566775,16.1767371 4.87525434,16.0957782 4.95999102,15.9988553 C5.01950211,16.0082583 5.07985236,16.0156654 5.14082326,16.0208274 C5.84356211,16.7957931 8.40511582,17.4499998 11.4499998,17.4499998 C15.0350055,17.4499998 17.9499998,16.5431127 17.9499998,15.5999999 C17.9499998,14.8839783 16.2697932,14.1888372 13.8918074,13.895587 Z M2.61929301,15.0252362 C2.73376227,15.1778235 2.86400932,15.325398 3.00550303,15.4571749 C3.65050216,16.0578801 4.24543552,16.1354265 4.65496209,15.5806863 C5.22737685,14.7962272 5.2112237,14.121238 4.85205436,13.5419632 C4.75853241,13.3911293 4.66657866,13.2869091 4.61159198,13.2377682 C4.50864198,13.145763 4.49976944,12.9877206 4.5917746,12.8847706 C4.68377976,12.7818206 4.84182215,12.7729481 4.94477215,12.8649532 C5.0329579,12.9437638 5.15576279,13.0829506 5.27699948,13.2784833 C5.68261991,13.9326752 5.74764443,14.7041402 5.28395056,15.5281561 C5.22003279,15.6417423 5.14606875,15.7563271 5.06156571,15.8717409 C5.02856082,15.9168188 4.99468236,15.9591749 4.95999102,15.9988553 C4.88173125,15.9863162 4.82719418,15.974267 4.7941341,15.9652595 C4.66091892,15.9289639 4.58235005,15.7915483 4.61864562,15.6583331 C4.62643782,15.6297335 4.63889069,15.6036526 4.65496209,15.5806863 C4.72136298,15.4937585 4.82467235,15.4553537 4.92557199,15.4828446 C4.94213242,15.4873567 4.97938295,15.4955867 5.0333797,15.5042428 C5.11514221,15.5173501 5.19911572,15.5256361 5.28395056,15.5281561 C5.48177885,15.5340325 5.68429098,15.5085542 5.87437239,15.4397415 C6.06781634,15.3697115 6.23587226,15.2579158 6.34500102,15.1398492 C6.87430567,14.1757465 6.81385924,13.6537152 6.28871558,12.8661162 C6.23979562,12.7927471 6.01078992,12.4598163 6.07197446,12.549187 C6.04447053,12.5089408 6.04447053,12.5089408 6.01684525,12.4681149 C5.53154843,11.7486525 4.64542205,11.508698 3.47227055,11.8119998 C2.51552112,12.0593539 2.11268646,12.7837051 2.1455194,13.7802235 C2.08678411,13.9492835 2.16357606,14.2478242 2.33211635,14.5716448 C2.33316781,14.5697216 2.33422485,14.5677728 2.33528725,14.5657982 C2.40986101,14.4271923 2.46365141,14.2308891 2.48260472,13.9658031 C2.50612583,13.6368307 2.53090128,13.3585876 2.5554225,13.1296854 C2.57027454,12.9910436 2.58185514,12.8989677 2.58865587,12.8520695 C2.60847039,12.7154275 2.73530346,12.6207201 2.87194546,12.6405346 C3.00858747,12.6603491 3.10329486,12.7871822 3.08348034,12.9238242 C3.05895383,13.0929604 3.02086976,13.44847 2.98133158,14.0014614 C2.95750988,14.334638 2.88493686,14.5994867 2.77560252,14.8027 C2.72513159,14.8965073 2.67147373,14.9699233 2.61929301,15.0252362 Z M13.5786284,12.1007849 C13.5378104,11.8673344 13.4780505,11.6304535 13.3989953,11.4064659 C13.0621886,10.4521898 12.5593554,10.0832709 11.9701302,10.4526086 C11.5613225,10.7119388 11.2864116,11.0153691 11.1170365,11.3586517 C10.8858247,11.8272626 10.8634593,12.3319759 10.9658341,12.7972243 C10.986394,12.8906599 11.0062419,12.9561243 11.0177959,12.9870334 C11.0661407,13.1163642 11.0004885,13.2603986 10.8711578,13.3087434 C10.7418271,13.3570881 10.5977926,13.291436 10.5494479,13.1621052 C10.5300286,13.1101552 10.5034165,13.0223802 10.4775163,12.9046754 C10.3528289,12.3380258 10.3801184,11.7221906 10.6686452,11.1374161 C10.8346736,10.8009164 11.0800684,10.4978059 11.4108494,10.2361179 C11.5005878,10.1651239 11.5966105,10.0971786 11.6990379,10.0324424 C11.7537578,9.99785827 11.8080151,9.96727834 11.8617627,9.9405935 C11.9218897,9.98666154 11.970724,10.0292236 12.0072662,10.0649075 C12.1060507,10.1613714 12.1079318,10.3196515 12.0114679,10.4184359 C11.9986807,10.4315307 11.9848073,10.4429227 11.9701302,10.4526086 C11.866553,10.515367 11.7411426,10.5038862 11.6579395,10.4226375 C11.6128387,10.3785963 11.5272099,10.3089354 11.4108494,10.2361179 C11.3977018,10.2278902 11.3841619,10.2196222 11.3702437,10.2113463 C10.9821551,9.98058519 10.585058,9.91952244 10.2523128,10.0843239 C9.64069579,10.6005877 9.3643924,11.0836403 9.30092395,11.6367136 C9.26382061,11.9600374 9.28529556,12.2066119 9.38357476,12.8684838 C9.39957015,12.976473 9.39957015,12.976473 9.41524151,13.08669 C9.55667356,14.0997446 10.2656199,14.7898705 11.4558773,15.0474632 C12.4131795,15.2546402 13.0825459,14.6961009 13.467538,13.6435383 C13.6031367,13.4824042 13.6619568,13.104866 13.6408637,12.6556642 C13.5171102,12.7645286 13.3863837,12.9438598 13.2575947,13.2117844 C13.0982516,13.5432718 12.9590927,13.8211827 12.8409035,14.0477069 C12.7694188,14.184716 12.7204752,14.2747149 12.6948579,14.3198931 C12.626754,14.4399994 12.4741795,14.4821557 12.3540733,14.4140518 C12.233967,14.3459479 12.1918107,14.1933735 12.2599146,14.0732672 C12.2826379,14.0331929 12.3288008,13.9483072 12.3976132,13.8164197 C12.5132525,13.594783 12.6499629,13.3217616 12.8069547,12.9951657 C13.0613521,12.4659333 13.3386272,12.1946167 13.5786284,12.1007849 Z M8.79233059,12.1617558 C8.77685407,11.9467592 8.78143271,11.7779679 8.80418402,11.5797097 C8.8827799,10.8948137 9.2242904,10.2977616 9.97633671,9.67115897 C10.5334609,9.38342364 11.1036253,9.47109945 11.6257861,9.78158118 C11.7170352,9.83583876 11.7961273,9.89030504 11.8617627,9.9405935 C12.7308892,9.50908576 13.4667333,10.0960888 13.8704899,11.2400543 C14.2306243,12.2604248 14.2490565,13.4913935 13.8948342,13.8869541 C13.4807944,15.0721967 12.6004865,15.8067519 11.3501169,15.5361499 C10.4598417,15.3434787 9.78163566,14.9243678 9.36479195,14.3228899 C9.48676862,14.4988942 9.63112478,14.659283 9.79662534,14.8029522 C8.55266182,14.8804725 7.50074698,15.0334271 6.87307981,15.1963155 C6.83633644,15.2701642 6.79646807,15.3458254 6.75341804,15.4234913 C6.66963388,15.5205838 6.57799262,15.6053066 6.47942713,15.6781827 C7.14795017,15.9544444 9.19352239,16.25 11.5,16.25 C14.3200095,16.25 16.75,15.8081835 16.75,15.5 C16.75,15.2643517 15.3292609,14.9505724 13.3997699,14.8159219 C13.5151933,14.6700444 13.6181882,14.5066429 13.7082939,14.3283726 C15.8179941,14.4900379 17.25,14.8966471 17.25,15.5 C17.25,16.296386 14.7551228,16.75 11.5,16.75 C8.87070956,16.75 6.73743577,16.4540428 6.01433576,15.9205427 C5.66248713,16.0413009 5.2977255,16.0522186 4.95999102,15.9988553 C4.33930175,16.7088075 3.45839372,16.562223 2.66473643,15.8230685 C1.95373228,15.1608911 1.47792893,14.1782234 1.65969534,13.7110128 C1.60224547,12.5934393 2.13122128,11.6422693 3.3471176,11.3279164 C4.70945925,10.9757021 5.81526881,11.2751448 6.43136048,12.1885132 C6.45784348,12.2276512 6.45784348,12.2276512 6.4845503,12.2667314 C6.42076661,12.1735641 6.65345559,12.5118498 6.70472178,12.5887377 C7.17793676,13.2984551 7.33919318,13.8839505 7.10001827,14.6450733 C7.70025782,14.4968876 8.47371669,14.3883088 9.36479195,14.3228899 C9.13263201,13.9878985 8.98154411,13.5963386 8.92004412,13.1558243 C8.90483092,13.048826 8.90483092,13.048826 8.88899733,12.941922 C8.86258613,12.764053 8.84131649,12.6136662 8.82497285,12.4820971 C8.82157274,12.4804226 8.81819215,12.4786552 8.81483478,12.4767942 C8.71760291,12.4228977 8.67666083,12.3108688 8.72338807,12.2265706 C8.73937337,12.1977323 8.76354788,12.1758753 8.79233059,12.1617558 Z M8.35760125,11.2256761 C8.40432849,11.1413779 8.52103041,11.1167325 8.61826228,11.170629 C8.71549415,11.2245255 8.75643623,11.3365544 8.70970899,11.4208526 C8.66298174,11.5051508 8.54627982,11.5297962 8.44904795,11.4758997 C8.35181608,11.4220032 8.310874,11.3099743 8.35760125,11.2256761 Z M7.28759893,9.83442863 C7.33432618,9.75013045 7.4510281,9.72548502 7.54825997,9.77938152 C7.64549184,9.83327803 7.68643392,9.94530696 7.63970668,10.0296051 C7.59297943,10.1139033 7.47627751,10.1385488 7.37904564,10.0846522 C7.28181377,10.0307557 7.24087169,9.91872681 7.28759893,9.83442863 Z M7.808921,9.72433441 C7.85564825,9.64003623 7.97235017,9.6153908 8.06958204,9.6692873 C8.1668139,9.72318381 8.20775599,9.83521274 8.16102874,9.91951092 C8.1143015,10.0038091 7.99759958,10.0284545 7.90036771,9.97455803 C7.80313584,9.92066153 7.76219376,9.8086326 7.808921,9.72433441 Z M7.10470552,9.3339814 C7.15143277,9.24968321 7.26813469,9.22503778 7.36536655,9.27893429 C7.46259842,9.33283079 7.50354051,9.44485972 7.45681326,9.5291579 C7.41008602,9.61345609 7.2933841,9.63810152 7.19615223,9.58420501 C7.09892036,9.53030851 7.05797827,9.41827958 7.10470552,9.3339814 Z M6.80731413,12.3616767 C6.85404138,12.2773785 6.9707433,12.2527331 7.06797516,12.3066296 C7.16520703,12.3605261 7.20614912,12.4725551 7.15942187,12.5568532 C7.11269462,12.6411514 6.9959927,12.6657969 6.89876084,12.6119003 C6.80152897,12.5580038 6.76058688,12.4459749 6.80731413,12.3616767 Z M11.0964824,14.0069098 C11.1928504,14.0052277 11.272545,14.0939718 11.2744852,14.2051253 C11.2764254,14.3162788 11.1998765,14.4077502 11.1035085,14.4094323 C11.0071405,14.4111144 10.927446,14.3223703 10.9255058,14.2112168 C10.9235656,14.1000632 11.0001145,14.0085919 11.0964824,14.0069098 Z M11.7803891,13.1896819 C11.8767571,13.1879997 11.9564516,13.2767439 11.9583918,13.3878974 C11.960332,13.4990509 11.8837831,13.5905222 11.7874151,13.5922044 C11.6910471,13.5938865 11.6113526,13.5051424 11.6094124,13.3939888 C11.6074722,13.2828353 11.6840211,13.191364 11.7803891,13.1896819 Z M12.4502436,11.5674089 C12.5466116,11.5657268 12.6263061,11.6544709 12.6282463,11.7656244 C12.6301865,11.876778 12.5536376,11.9682493 12.4572696,11.9699314 C12.3609016,11.9716135 12.2812071,11.8828694 12.2792669,11.7717159 C12.2773267,11.6605624 12.3538756,11.569091 12.4502436,11.5674089 Z M12.806249,11.96384 C12.902617,11.9621579 12.9823115,12.050902 12.9842517,12.1620555 C12.9861919,12.273209 12.9096431,12.3646804 12.8132751,12.3663625 C12.7169071,12.3680446 12.6372125,12.2793005 12.6352723,12.168147 C12.6333322,12.0569934 12.709881,11.9655221 12.806249,11.96384 Z M12.7921969,11.158795 C12.8885649,11.1571129 12.9682594,11.245857 12.9701996,11.3570105 C12.9721398,11.468164 12.8955909,11.5596354 12.7992229,11.5613175 C12.702855,11.5629996 12.6231604,11.4742555 12.6212202,11.3631019 C12.61928,11.2519484 12.6958289,11.1604771 12.7921969,11.158795 Z M10.0214401,12.4150941 C10.1178081,12.413412 10.1975026,12.5021561 10.1994428,12.6133097 C10.201383,12.7244632 10.1248342,12.8159345 10.0284662,12.8176166 C9.93209819,12.8192987 9.85240366,12.7305546 9.85046347,12.6194011 C9.84852327,12.5082476 9.92507213,12.4167762 10.0214401,12.4150941 Z M4.15528648,12.4506972 C4.06865831,12.4929486 3.96418079,12.4569741 3.92192941,12.3703459 C3.87967803,12.2837178 3.91565252,12.1792402 4.0022807,12.1369889 C4.08890887,12.0947375 4.19338639,12.130712 4.23563777,12.2173401 C4.27788915,12.3039683 4.24191466,12.4084458 4.15528648,12.4506972 Z M3.83388135,13.3841255 C3.74725318,13.4263769 3.64277566,13.3904024 3.60052428,13.3037742 C3.55827289,13.2171461 3.59424739,13.1126685 3.68087556,13.0704172 C3.76750373,13.0281658 3.87198125,13.0641403 3.91423263,13.1507684 C3.95648401,13.2373966 3.92050952,13.3418741 3.83388135,13.3841255 Z M3.81848779,14.9449705 C3.73185962,14.9872219 3.6273821,14.9512474 3.58513072,14.8646192 C3.54287934,14.7779911 3.57885383,14.6735135 3.665482,14.6312622 C3.75211017,14.5890108 3.85658769,14.6249853 3.89883907,14.7116134 C3.94109046,14.7982416 3.90511596,14.9027191 3.81848779,14.9449705 Z M3.35177364,14.784268 C3.26514547,14.8265193 3.16066795,14.7905448 3.11841657,14.7039167 C3.07616519,14.6172885 3.11213968,14.512811 3.19876786,14.4705596 C3.28539603,14.4283082 3.38987355,14.4642827 3.43212493,14.5509109 C3.47437631,14.6375391 3.43840182,14.7420166 3.35177364,14.784268 Z M3.65778522,15.4116847 C3.57115705,15.453936 3.46667953,15.4179616 3.42442815,15.3313334 C3.38217677,15.2447052 3.41815126,15.1402277 3.50477943,15.0979763 C3.5914076,15.0557249 3.69588512,15.0916994 3.73813651,15.1783276 C3.78038789,15.2649558 3.74441339,15.3694333 3.65778522,15.4116847 Z M19.3198602,15.784268 C19.233232,15.8265193 19.1287545,15.7905448 19.0865031,15.7039167 C19.0442517,15.6172885 19.0802262,15.512811 19.1668544,15.4705596 C19.2534826,15.4283082 19.3579601,15.4642827 19.4002115,15.5509109 C19.4424629,15.6375391 19.4064884,15.7420166 19.3198602,15.784268 Z M19.1598603,16.4102117 C19.0732322,16.4524631 18.9687547,16.4164886 18.9265033,16.3298604 C18.8842519,16.2432323 18.9202264,16.1387547 19.0068546,16.0965034 C19.0934827,16.054252 19.1979603,16.0902265 19.2402116,16.1768546 C19.282463,16.2634828 19.2464885,16.3679603 19.1598603,16.4102117 Z M15.1598603,15.4102117 C15.0732322,15.4524631 14.9687547,15.4164886 14.9265033,15.3298604 C14.8842519,15.2432323 14.9202264,15.1387547 15.0068546,15.0965034 C15.0934827,15.054252 15.1979603,15.0902265 15.2402116,15.1768546 C15.282463,15.2634828 15.2464885,15.3679603 15.1598603,15.4102117 Z M13.80986,15.8902113 C13.7232318,15.9324626 13.6187543,15.8964881 13.5765029,15.80986 C13.5342515,15.7232318 13.570226,15.6187543 13.6568542,15.5765029 C13.7434823,15.5342515 13.8479599,15.570226 13.8902113,15.6568542 C13.9324626,15.7434823 13.8964881,15.8479599 13.80986,15.8902113 Z M14.1598603,17.0902111 C14.0732322,17.1324624 13.9687547,17.0964879 13.9265033,17.0098598 C13.8842519,16.9232316 13.9202264,16.8187541 14.0068546,16.7765027 C14.0934827,16.7342513 14.1979603,16.7702258 14.2402116,16.856854 C14.282463,16.9434822 14.2464885,17.0479597 14.1598603,17.0902111 Z M18.9598596,14.0902111 C18.8732314,14.1324624 18.7687539,14.0964879 18.7265025,14.0098598 C18.6842511,13.9232316 18.7202256,13.8187541 18.8068538,13.7765027 C18.893482,13.7342513 18.9979595,13.7702258 19.0402109,13.856854 C19.0824623,13.9434822 19.0464878,14.0479597 18.9598596,14.0902111 Z M19.3798597,18.0002109 C19.2932315,18.0424623 19.188754,18.0064878 19.1465026,17.9198596 C19.1042512,17.8332315 19.1402257,17.7287539 19.2268539,17.6865026 C19.313482,17.6442512 19.4179596,17.6802257 19.4602109,17.7668538 C19.5024623,17.853482 19.4664878,17.9579595 19.3798597,18.0002109 Z M17.1598603,16.4102117 C17.0732322,16.4524631 16.9687547,16.4164886 16.9265033,16.3298604 C16.8842519,16.2432323 16.9202264,16.1387547 17.0068546,16.0965034 C17.0934827,16.054252 17.1979603,16.0902265 17.2402116,16.1768546 C17.282463,16.2634828 17.2464885,16.3679603 17.1598603,16.4102117 Z M17.3798597,18.590212 C17.2932315,18.6324634 17.188754,18.5964889 17.1465026,18.5098607 C17.1042512,18.4232326 17.1402257,18.318755 17.2268539,18.2765037 C17.313482,18.2342523 17.4179596,18.2702268 17.4602109,18.3568549 C17.5024623,18.4434831 17.4664878,18.5479606 17.3798597,18.590212 Z M14.1598603,15.4102117 C14.0732322,15.4524631 13.9687547,15.4164886 13.9265033,15.3298604 C13.8842519,15.2432323 13.9202264,15.1387547 14.0068546,15.0965034 C14.0934827,15.054252 14.1979603,15.0902265 14.2402116,15.1768546 C14.282463,15.2634828 14.2464885,15.3679603 14.1598603,15.4102117 Z M12.80986,15.8902113 C12.7232318,15.9324626 12.6187543,15.8964881 12.5765029,15.80986 C12.5342515,15.7232318 12.570226,15.6187543 12.6568542,15.5765029 C12.7434823,15.5342515 12.8479599,15.570226 12.8902113,15.6568542 C12.9324626,15.7434823 12.8964881,15.8479599 12.80986,15.8902113 Z M5.70843471,13.2465133 C5.62180654,13.2887647 5.51732902,13.2527902 5.47507764,13.166162 C5.43282626,13.0795338 5.46880075,12.9750563 5.55542892,12.9328049 C5.64205709,12.8905535 5.74653461,12.926528 5.788786,13.0131562 C5.83103738,13.0997844 5.79506288,13.2042619 5.70843471,13.2465133 Z M10.281398,15.5966311 C10.2452924,15.5072666 10.2884673,15.4055531 10.3778317,15.3694475 C10.4671962,15.3333419 10.5689097,15.3765167 10.6050153,15.4658812 C10.6411209,15.5552457 10.5979461,15.6569592 10.5085816,15.6930648 C10.4192172,15.7291704 10.3175036,15.6859955 10.281398,15.5966311 Z M8.85802164,15.7606443 C8.82191606,15.6712798 8.8650909,15.5695662 8.95445536,15.5334607 C9.04381982,15.4973551 9.14553338,15.5405299 9.18163896,15.6298944 C9.21774455,15.7192588 9.1745697,15.8209724 9.08520525,15.857078 C8.99584079,15.8931836 8.89412723,15.8500087 8.85802164,15.7606443 Z M11.1939394,17.2746939 C11.1578338,17.1853295 11.2010087,17.0836159 11.2903731,17.0475103 C11.3797376,17.0114047 11.4814512,17.0545796 11.5175567,17.143944 C11.5536623,17.2333085 11.5104875,17.3350221 11.421123,17.3711276 C11.3317586,17.4072332 11.230045,17.3640584 11.1939394,17.2746939 Z M18.2939398,16.7606443 C18.2578342,16.6712798 18.3010091,16.5695662 18.3903735,16.5334607 C18.479738,16.4973551 18.5814515,16.5405299 18.6175571,16.6298944 C18.6536627,16.7192588 18.6104879,16.8209724 18.5211234,16.857078 C18.4317589,16.8931836 18.3300454,16.8500087 18.2939398,16.7606443 Z M9.30702794,15.37168 C9.27092235,15.2823156 9.3140972,15.180602 9.40346166,15.1444964 C9.49282611,15.1083908 9.59453968,15.1515657 9.63064526,15.2409301 C9.66675085,15.3302946 9.623576,15.4320082 9.53421154,15.4681137 C9.44484709,15.5042193 9.34313352,15.4610445 9.30702794,15.37168 Z M7.88365158,15.5356932 C7.84754599,15.4463287 7.89072084,15.3446152 7.9800853,15.3085096 C8.06944975,15.272404 8.17116332,15.3155789 8.2072689,15.4049433 C8.24337448,15.4943078 8.20019964,15.5960213 8.11083518,15.6321269 C8.02147072,15.6682325 7.91975716,15.6250577 7.88365158,15.5356932 Z"/><path d="M14.9065843,10.6071935 L15.3831266,13.4689264 C15.4284851,13.7413133 15.2445808,13.9989199 14.9723649,14.0443069 C14.7001491,14.0896939 14.4427042,13.9056741 14.3973457,13.6332872 L12.8068737,4.08218041 C12.7615152,3.8097935 12.9454195,3.55218685 13.2176354,3.50679986 C13.4898512,3.46141287 13.7472961,3.64543267 13.7926546,3.91781959 L13.818736,4.07444343 L21.4025752,2.56538573 L22.3798753,8.8879514 L14.9065843,10.6071935 Z M13.8935416,4.52366666 L14.8253209,10.1191903 L21.8147862,8.50527776 L20.9877243,3.15466635 L13.8935416,4.52366666 Z"/><path d="M17.4526818,5.10832192 L16.5052396,7.86555846 L19.4396824,7.24182338 L17.4526818,5.10832192 Z M17.8185742,4.76755412 L19.8055749,6.90105559 C20.0704518,7.18546179 19.9237926,7.65009288 19.5436382,7.73089718 L16.6091954,8.35463226 C16.2290411,8.43543656 15.9060787,8.07062661 16.0323774,7.70307346 L16.9798196,4.94583693 C17.1024828,4.58886358 17.5613216,4.49133438 17.8185742,4.76755412 Z"/><path d="M18.1283947,8.28730162 L19.0758369,5.53006508 L16.1413941,6.15380016 L18.1283947,8.28730162 Z M18.6012569,8.44978661 C18.4785937,8.80675996 18.0197549,8.90428916 17.7625023,8.62806942 L15.7755016,6.49456795 C15.5106247,6.21016175 15.6572839,5.74553066 16.0374383,5.66472636 L18.9718811,5.04099128 C19.3520354,4.96018698 19.6749978,5.32499693 19.5486991,5.69255008 L18.6012569,8.44978661 Z"/></g></g><text x="0" y="39" fill="#000000" font-size="5px" font-weight="bold" font-family="'Helvetica Neue', Helvetica, Arial-Unicode, Arial, Sans-serif">Created by Eynav Raphael</text><text x="0" y="44" fill="#000000" font-size="5px" font-weight="bold" font-family="'Helvetica Neue', Helvetica, Arial-Unicode, Arial, Sans-serif">from the Noun Project</text></svg>